<?xml version="1.0" encoding="UTF-8" standalone="no"?>
<!-- Created with Inkscape (http://www.inkscape.org/) -->

<svg
   xmlns:dc="http://purl.org/dc/elements/1.1/"
   xmlns:cc="http://creativecommons.org/ns#"
   xmlns:rdf="http://www.w3.org/1999/02/22-rdf-syntax-ns#"
   xmlns:svg="http://www.w3.org/2000/svg"
   xmlns="http://www.w3.org/2000/svg"
   xmlns:xlink="http://www.w3.org/1999/xlink"
   xmlns:sodipodi="http://sodipodi.sourceforge.net/DTD/sodipodi-0.dtd"
   xmlns:inkscape="http://www.inkscape.org/namespaces/inkscape"
   version="1.1"
   id="svg151"
   width="2289"
   height="2667"
   viewBox="0 0 2289 2667"
   sodipodi:docname="akala.svg"
   inkscape:version="0.92.3 (2405546, 2018-03-11)">
  <metadata
     id="metadata157">
    <rdf:RDF>
      <cc:Work
         rdf:about="">
        <dc:format>image/svg+xml</dc:format>
        <dc:type
           rdf:resource="http://purl.org/dc/dcmitype/StillImage" />
        <dc:title />
      </cc:Work>
    </rdf:RDF>
  </metadata>
  <defs
     id="defs155" />
  <sodipodi:namedview
     pagecolor="#ffffff"
     bordercolor="#666666"
     borderopacity="1"
     objecttolerance="10"
     gridtolerance="10"
     guidetolerance="10"
     inkscape:pageopacity="0"
     inkscape:pageshadow="2"
     inkscape:window-width="1920"
     inkscape:window-height="1019"
     id="namedview153"
     showgrid="false"
     inkscape:zoom="1.4158231"
     inkscape:cx="968.58671"
     inkscape:cy="418.07759"
     inkscape:window-x="1920"
     inkscape:window-y="0"
     inkscape:window-maximized="1"
     inkscape:current-layer="svg151"
     inkscape:object-paths="true" />
  <image
     sodipodi:absref="/projects/poketools/app/assets/static/map/alola/akala.jpg"
     xlink:href="akala.jpg"
     style="fill:none;fill-opacity:1;stroke:#000000;stroke-opacity:1"
     y="0"
     x="0"
     id="image159"
     preserveAspectRatio="none"
     height="2667"
     width="2289" />
  <path
     style="fill:none;stroke:#000000;stroke-width:1px;stroke-linecap:butt;stroke-linejoin:miter;stroke-opacity:1"
     d="m 745.85593,1758.6944 122.89672,-1.4126 -1.41261,19.7765 64.97988,5.6504 32.48993,-19.7765 4.23782,-16.9513 62.15463,-48.0286 22.6017,-118.6589 46.616,-80.5185 -4.2378,-56.5042 -125.72192,9.8882 -80.51854,-45.2034 -57.91684,-76.2807 -146.91102,40.9656 -25.42691,48.0286 76.28072,148.3236 8.47564,24.0143 z"
     id="path972"
     inkscape:connector-curvature="0" />
  <path
     style="fill:none;stroke:#000000;stroke-width:1px;stroke-linecap:butt;stroke-linejoin:miter;stroke-opacity:1"
     d="m 685.11388,1371.6404 -55.09163,-14.1261 -28.25212,-88.9942 -8.47564,-48.0286 -32.48993,-55.0916 53.67902,-56.5042 -24.0143,-31.0774 2.82521,-42.3782 46.616,-15.5386 26.83951,8.4756 12.71345,-5.6504 -2.82521,-16.9513 35.31515,-50.85379 24.0143,-4.23782 28.25212,-32.48994 7.06303,-64.97987 148.32362,-170.92532 39.55297,-5.65042 9.88824,-19.77648 32.48993,-15.53867 15.5387,-25.42691 40.9655,4.23782 5.6505,-26.83951 49.4412,14.12606 21.1891,-22.6017 25.4269,-139.84798 145.4984,12.71345 -60.7421,214.7161 128.5472,240.14301 -4.2378,104.53287 -137.0228,9.8882 -32.49,-5.6504 -35.3151,12.7134 -52.2664,1.4126 -38.1404,15.5387 -168.1001,2.8252 -1.4126,121.4841 -32.48994,55.0917 -4.23782,86.1689 -35.31514,14.1261 z"
     id="path1012"
     inkscape:connector-curvature="0" />
  <path
     style="fill:none;stroke:#000000;stroke-width:1px;stroke-linecap:butt;stroke-linejoin:miter;stroke-opacity:1"
     d="m 1096.1822,1442.2707 26.8395,-252.8565 32.49,-2.8252 18.3638,-14.1261 1.4126,-28.2521 73.4555,-7.063 -22.6016,93.232 -4.2379,50.8538 8.4757,202.0026 8.4756,216.1287 -43.7908,-5.6504 -31.0773,15.5387 -119.5183,-80.9513 9.335,-49.0085 46.616,-80.5185 z"
     id="path1014"
     inkscape:connector-curvature="0" />
  <path
     style="fill:none;stroke:#000000;stroke-width:1px;stroke-linecap:butt;stroke-linejoin:miter;stroke-opacity:1"
     d="m 1305.2479,457.68432 88.9942,24.0143 67.805,4.23782 29.6648,-91.81939 115.8337,12.71345 141.2605,-21.18908 28.2522,19.77648 81.9311,-7.06303 74.8681,22.60169 90.4068,79.10594 64.9799,50.85381 26.8395,55.09163 1.4126,57.91684 -16.9513,48.02861 28.2521,63.56726 -1.4126,56.50424 -26.8395,97.46981 -60.742,46.616 -35.3152,5.65042 -50.8538,-28.25212 -33.9025,21.18909 -7.0631,39.55301 -18.3638,8.4756 -18.3639,1.4126 -11.3009,-12.7135 -81.9311,53.6791 -96.0572,5.6504 -320.6616,2.8252 2.8253,-56.5042 4.2378,-104.53287 -128.5472,-240.14301 z"
     id="path1016"
     inkscape:connector-curvature="0" />
  <path
     style="fill:none;stroke:#000000;stroke-width:1px;stroke-linecap:butt;stroke-linejoin:miter;stroke-opacity:1"
     d="m 771.28284,853.21398 -35.31515,-53.67903 -43.79078,12.71346 -40.96557,-79.10593 33.90254,-96.05721 114.42108,-83.34375 -9.88824,-52.26642 -24.0143,-55.09163 18.36387,-15.53866 28.25212,4.23781 77.69333,-46.61599 87.58157,-18.36388 42.37819,-56.50424 -7.063,-25.4269 24.0143,-46.616 16.9512,-1.41261 5.6505,-14.12605 -4.2379,-14.12606 14.1261,-40.96558 48.0286,-8.47563 9.8882,-19.77648 77.6934,-11.30085 26.8395,21.18909 26.8395,14.12606 16.9513,-12.71346 53.679,4.23782 19.7765,19.77648 35.3151,7.06303 53.679,-28.25212 19.7765,-21.18908 74.8681,19.77648 38.1404,-18.36388 38.1404,15.53867 28.2521,26.83951 -4.2378,14.12606 24.0143,24.0143 9.8882,46.616 25.4269,24.0143 40.9656,76.28072 15.5386,21.18909 -141.2605,21.18908 -115.8337,-12.71345 -29.6648,91.81939 -67.805,-4.23782 -88.9942,-24.0143 -145.4984,-12.71345 -25.4269,139.84798 -21.1891,22.6017 -49.4412,-14.12606 -5.6505,26.83951 -40.9655,-4.23782 -15.5387,25.42691 -32.48993,15.53867 -9.88824,19.77648 -39.55297,5.65042 z"
     id="path1018"
     inkscape:connector-curvature="0" />
  <path
     style="fill:none;stroke:#000000;stroke-width:1px;stroke-linecap:butt;stroke-linejoin:miter;stroke-opacity:1"
     d="m 565.04237,2459.3469 -28.25211,24.0143 -28.25212,19.7765 -45.20339,-15.5387 -12.71346,-15.5386 -31.07733,-8.4757 -8.01231,-20.3301 92.89428,-58.9329 12.98523,-69.9204 55.93634,-41.9523 25.97044,39.9546 26.96931,-4.9944 36.95794,31.9637 -6.99204,36.9579 -33.96135,23.9727 h -16.98068 l -37.9568,36.958 3.99545,15.9818 z"
     id="path1020"
     inkscape:connector-curvature="0" />
  <path
     style="fill:none;stroke:#000000;stroke-width:1px;stroke-linecap:butt;stroke-linejoin:miter;stroke-opacity:1"
     d="m 912.961,2467.2274 -0.99887,43.9499 121.86127,18.9784 57.9341,-42.9511 18.9784,-39.9545 v -40.9534 l -9.9886,-51.9409 -80.9079,-50.942 -70.91933,4.9943 -31.96362,118.8647 z"
     id="path1022"
     inkscape:connector-curvature="0" />
  <path
     style="opacity:1;fill:none;stroke:#000000;stroke-width:1px;stroke-linecap:butt;stroke-linejoin:miter;stroke-opacity:1"
     d="m 1372.438,1115.5157 -0.2497,79.1599 c 8.6335,19.0759 22.2598,24.3494 40.2043,23.4733 l 73.9159,0.4994 c 22.1595,-2.1474 32.2883,-10.1311 37.2076,-22.2247 l -0.7492,-74.6651 c -8.6118,-26.6606 -21.0356,-35.5709 -34.9602,-40.2666 l -78.4107,-0.3122 c -15.313,3.8374 -28.8777,19.3209 -36.958,34.336 z"
     id="path2181"
     inkscape:connector-curvature="0"
     sodipodi:nodetypes="ccccccccc" />
  <path
     style="fill:none;stroke:#000000;stroke-width:1px;stroke-linecap:butt;stroke-linejoin:miter;stroke-opacity:1"
     d="m 685.11388,1371.6404 146.91102,-40.9656 35.31514,-14.1261 4.23782,-86.1689 32.48994,-55.0917 1.4126,-121.4841 -103.82654,-139.14164 -37.43405,3.53149 -28.25212,32.48994 -24.0143,4.23782 -35.31515,50.85379 2.82521,16.9513 -12.71345,5.6504 -26.83951,-8.4756 -46.616,15.5386 -2.82521,42.3782 24.0143,31.0774 -53.67902,56.5042 32.48993,55.0916 8.47564,48.0286 28.25212,88.9942 z"
     id="path49"
     inkscape:connector-curvature="0" />
  <circle
     style="opacity:1;fill:none;fill-opacity:1;fill-rule:nonzero;stroke:#000000;stroke-width:1;stroke-linecap:butt;stroke-linejoin:miter;stroke-miterlimit:4;stroke-dasharray:none;stroke-opacity:1"
     id="path862"
     cx="699"
     cy="1230"
     r="20" />
  <path
     style="fill:none;stroke:#000000;stroke-width:1px;stroke-linecap:butt;stroke-linejoin:miter;stroke-opacity:1"
     d="m 626.28725,2307.4092 -26.96931,4.9944 -25.97044,-39.9546 -55.93634,41.9523 -66.78989,-154.5268 -90.40677,-124.3093 15.53866,-37.4341 52.26642,-14.8323 -2.11891,-12.7135 -9.88824,-28.2521 42.37818,-13.4198 82.63744,2.8252 20.48279,12.7135 40.25926,-4.9441 56.50424,21.1891 20.48278,3.5315 38.14036,-9.8883 65.68618,-33.9025 44.49708,20.4828 h 64.27357 l 47.32229,-16.9513 99.6417,68.798 26.7865,-3.8181 21.1891,11.3008 2.8252,38.1404 31.0774,33.1962 24.0143,7.0631 69.924,62.1546 16.2449,43.7908 -129.6324,169.7607 -80.9079,-50.942 29.7268,-26.293 7.063,-139.1417 -48.0286,-31.7836 -85.46266,8.4756 -18.36388,57.9168 2.82522,28.2522 41.32079,107.568 -31.96362,118.8647 -46.79123,-83.7595 -120.0715,-6.3568 -86.84853,2.2164 z"
     id="path50"
     inkscape:connector-curvature="0" />
</svg>
