<?xml version="1.0" encoding="UTF-8" standalone="no"?>
<!-- Created with Inkscape (http://www.inkscape.org/) -->

<svg
   xmlns:dc="http://purl.org/dc/elements/1.1/"
   xmlns:cc="http://creativecommons.org/ns#"
   xmlns:rdf="http://www.w3.org/1999/02/22-rdf-syntax-ns#"
   xmlns:svg="http://www.w3.org/2000/svg"
   xmlns="http://www.w3.org/2000/svg"
   xmlns:xlink="http://www.w3.org/1999/xlink"
   xmlns:sodipodi="http://sodipodi.sourceforge.net/DTD/sodipodi-0.dtd"
   xmlns:inkscape="http://www.inkscape.org/namespaces/inkscape"
   version="1.1"
   id="svg100"
   width="2376"
   height="1872"
   viewBox="0 0 2376 1872"
   sodipodi:docname="melemele.svg"
   inkscape:version="0.92.3 (2405546, 2018-03-11)">
  <metadata
     id="metadata106">
    <rdf:RDF>
      <cc:Work
         rdf:about="">
        <dc:format>image/svg+xml</dc:format>
        <dc:type
           rdf:resource="http://purl.org/dc/dcmitype/StillImage" />
        <dc:title />
      </cc:Work>
    </rdf:RDF>
  </metadata>
  <defs
     id="defs104" />
  <sodipodi:namedview
     pagecolor="#ffffff"
     bordercolor="#666666"
     borderopacity="1"
     objecttolerance="10"
     gridtolerance="10"
     guidetolerance="10"
     inkscape:pageopacity="0"
     inkscape:pageshadow="2"
     inkscape:window-width="1920"
     inkscape:window-height="1019"
     id="namedview102"
     showgrid="false"
     inkscape:object-paths="true"
     inkscape:zoom="0.883547"
     inkscape:cx="1026.8257"
     inkscape:cy="603.36498"
     inkscape:window-x="1920"
     inkscape:window-y="0"
     inkscape:window-maximized="1"
     inkscape:current-layer="svg100" />
  <image
     sodipodi:absref="/projects/poketools/app/assets/static/map/alola/melemele.png"
     xlink:href="melemele.png"
     width="2376"
     height="1872"
     preserveAspectRatio="none"
     id="image108"
     x="0"
     y="0" />
  <path
     style="fill:none;stroke:#000000;stroke-width:1px;stroke-linecap:butt;stroke-linejoin:miter;stroke-opacity:1"
     d="m 923.30526,826.76842 355.35794,-51.06316 23.9684,-39.6 254.2737,-20.8421 103.1684,21.88421 68.7789,55.23158 17.7158,112.54736 -310.5473,118.79999 -174.0316,33.3474 -262.61055,-43.7684 z"
     id="path110"
     inkscape:connector-curvature="0" />
  <path
     style="fill:none;stroke:#000000;stroke-width:1px;stroke-linecap:butt;stroke-linejoin:miter;stroke-opacity:1"
     d="m 1746.5684,904.92631 31.2632,52.10527 -8.3369,38.55789 120.8843,201.12633 -109.4211,258.4421 -301.1684,244.8947 -137.5579,-37.5158 -118.8,-323.0526 -39.6,15.6316 53.1473,-89.6211 -68.7789,-122.9684 93.7895,-85.4526 174.0316,-33.3474 z"
     id="path114"
     inkscape:connector-curvature="0" />
  <path
     style="fill:none;stroke:#000000;stroke-width:1px;stroke-linecap:butt;stroke-linejoin:miter;stroke-opacity:1"
     d="m 809.23821,911.10036 c -24.89964,-1.1318 -594.19589,0 -594.19589,0 L 186.74728,767.36155 156.18863,745.85732 126.76179,648.52237 93.939541,639.46796 69.039903,504.78355 l 31.690447,-76.96251 91.67594,2.2636 50.93107,-97.33494 97.33495,-9.05442 22.63603,-33.95405 53.19468,-18.10882 59.98549,-50.93108 113.18017,-58.85369 117.70738,14.71342 39.61306,114.31197 67.9081,-20.37243 12.44982,204.85611 -100.73035,67.9081 -49.79928,-7.92261 23.76784,30.55865 -18.10883,62.24909 59.98549,116.57557 6.79081,48.66748 66.7763,73.56711 6.79081,32.82225 z"
     id="path968"
     inkscape:connector-curvature="0" />
  <path
     style="fill:none;stroke:#000000;stroke-width:1px;stroke-linecap:butt;stroke-linejoin:miter;stroke-opacity:1"
     d="m 707.37606,176.56106 c 52.48755,13.792 117.70724,-67.90711 176.56106,-101.862149 l 14.71342,-33.954051 72.43531,-6.79081 13.58162,27.16324 69.03993,61.11729 31.6904,48.66747 30.5587,6.79081 53.1946,64.5127 40.7449,2.2636 22.636,20.37244 21.5043,45.27206 12.4498,13.58162 -5.659,26.03144 2.2636,21.50423 -18.1088,12.44982 -14.7135,23.76784 -52.0628,18.10883 -21.5043,5.659 -21.5042,13.58162 -4.5272,45.27207 16.977,14.71342 6.7908,22.63604 23.7679,27.16324 20.3724,-2.2636 26.0314,27.16324 10.1862,26.03144 -6.7908,32.82224 -22.636,15.84523 -16.977,28.29504 32.8222,58.85369 39.3958,36.96933 -138.9448,19.96567 10.1367,-24.11275 -5.659,-26.03144 -22.636,-22.63604 -23.7679,-229.75574 4.5272,-57.72189 -16.977,-15.84522 -38.4813,-23.76783 -50.93104,-56.59009 -50.93107,-40.74486 -83.75333,-29.42684 -28.29504,-1.13181 -67.9081,20.37243 z"
     id="path970"
     inkscape:connector-curvature="0"
     sodipodi:nodetypes="cccccccccccccccccccccccccccccccccccccccccccccc" />
  <rect
     style="opacity:0.54000005;fill:#000000;fill-opacity:1;fill-rule:nonzero;stroke:none;stroke-width:12;stroke-linecap:butt;stroke-linejoin:miter;stroke-miterlimit:4;stroke-dasharray:none;stroke-opacity:1"
     id="rect2201"
     width="171"
     height="57"
     x="299"
     y="489" />
  <path
     style="fill:none;stroke:#000000;stroke-width:1px;stroke-linecap:butt;stroke-linejoin:miter;stroke-opacity:1"
     d="m 388.77389,754.34582 c 0,0 -3.39541,45.27207 -0.56591,45.83797 2.82951,0.5659 58.28779,-4.52721 58.28779,-4.52721 l 35.08585,8.48851 22.07014,-3.3954 26.59734,13.58162 24.89964,-10.75212 66.7763,-3.3954 22.63603,-19.24063 -2.2636,-29.42685 -5.09311,-7.92261 c 0,0 2.2636,-48.10157 0.5659,-52.62878 -1.6977,-4.5272 -13.58162,-16.97702 -13.58162,-16.97702 l -4.52721,-37.34946 -146.56832,0.5659 1.6977,43.57437 -7.35671,8.48851 -2.8295,50.36518 z"
     id="path12"
     inkscape:connector-curvature="0" />
  <path
     style="fill:none;stroke:#000000;stroke-width:1px;stroke-linecap:butt;stroke-linejoin:miter;stroke-opacity:1"
     d="m 1261.9895,1057.0737 -93.7895,85.4526 68.7789,122.9684 -53.1473,89.6211 -90.6154,135.9392 -294.51215,-113.6433 0.19419,187.8372 -227.48071,-2.1665 v -176.067 h 144.05484 l -1.60061,-62.4238 -155.9221,0.7601 0.66299,42.4564 -208.64511,2.2636 0.5659,-82.2941 H 121.64631 v -195.2743 l 94.43595,-72.8278 -1.03994,-108.57514 h 594.19589 l 190.14074,102.20494 z"
     id="path14"
     inkscape:connector-curvature="0"
     sodipodi:nodetypes="cccccccccccccccccccccc" />
</svg>
