<?xml version="1.0" encoding="UTF-8" standalone="no"?>
<!-- Created with Inkscape (http://www.inkscape.org/) -->

<svg
   xmlns:dc="http://purl.org/dc/elements/1.1/"
   xmlns:cc="http://creativecommons.org/ns#"
   xmlns:rdf="http://www.w3.org/1999/02/22-rdf-syntax-ns#"
   xmlns:svg="http://www.w3.org/2000/svg"
   xmlns="http://www.w3.org/2000/svg"
   xmlns:xlink="http://www.w3.org/1999/xlink"
   xmlns:sodipodi="http://sodipodi.sourceforge.net/DTD/sodipodi-0.dtd"
   xmlns:inkscape="http://www.inkscape.org/namespaces/inkscape"
   version="1.1"
   id="svg1171"
   width="2218"
   height="1688"
   viewBox="0 0 2218 1688"
   sodipodi:docname="poni.svg"
   inkscape:version="0.92.3 (2405546, 2018-03-11)">
  <metadata
     id="metadata1177">
    <rdf:RDF>
      <cc:Work
         rdf:about="">
        <dc:format>image/svg+xml</dc:format>
        <dc:type
           rdf:resource="http://purl.org/dc/dcmitype/StillImage" />
        <dc:title />
      </cc:Work>
    </rdf:RDF>
  </metadata>
  <defs
     id="defs1175" />
  <sodipodi:namedview
     pagecolor="#ffffff"
     bordercolor="#666666"
     borderopacity="1"
     objecttolerance="10"
     gridtolerance="10"
     guidetolerance="10"
     inkscape:pageopacity="0"
     inkscape:pageshadow="2"
     inkscape:window-width="1920"
     inkscape:window-height="1019"
     id="namedview1173"
     showgrid="false"
     inkscape:object-paths="true"
     inkscape:zoom="2.0559062"
     inkscape:cx="285.01272"
     inkscape:cy="481.08989"
     inkscape:window-x="1920"
     inkscape:window-y="0"
     inkscape:window-maximized="1"
     inkscape:current-layer="svg1171" />
  <image
     sodipodi:absref="/projects/poketools/app/assets/static/map/alola/poni.png"
     xlink:href="poni.png"
     width="2218"
     height="1688"
     preserveAspectRatio="none"
     id="image1179"
     x="0"
     y="0" />
  <path
     style="fill:none;stroke:#000000;stroke-width:1px;stroke-linecap:butt;stroke-linejoin:miter;stroke-opacity:1"
     d="m 1204.4751,526.86119 10.3182,-24.76362 24.0758,-10.31818 33.5625,7.45043 -7.2961,-25.29298 12.1601,-17.02412 c 0,0 -14.3508,-40.79996 -15.0387,-43.55147 -0.6878,-2.75151 -22.7,-33.01816 -22.7,-33.01816 l -19.2605,-10.31818 -37.8334,-52.27876 -15.8212,-7.56667 -11.006,5.50303 -4.8152,19.94848 -8.2545,80.48177 -3.4394,26.82726 17.197,51.59089 15.1333,5.50302 10.3182,22.69999 10.3181,7.56667 z"
     id="path1181"
     inkscape:connector-curvature="0" />
  <path
     style="fill:none;stroke:#000000;stroke-width:1px;stroke-linecap:butt;stroke-linejoin:miter;stroke-opacity:1"
     d="m 1272.4316,499.22982 16.6526,25.56774 c 0,0 13.7576,41.2727 14.4454,38.52119 0.6879,-2.75151 17.197,-39.89695 17.197,-39.89695 l 15.8212,-5.50303 50.2151,-54.34239 40.5849,-56.40604 15.1333,7.56667 104.2821,-2.08701 -16.5378,322.97193 -12.6465,79.77017 -371.6122,130.35614 v -36.96666 l -39.8851,-36.96667 -97.2807,-21.40175 c 0,0 -88.52546,0.9728 -92.41669,-8.75527 -3.89123,-9.72807 -14.5921,-35.02105 -14.5921,-35.02105 l -53.50439,-79.77017 29.18421,-38.91229 54.47719,-19.45614 11.67369,-28.2114 -7.78246,-36.96667 13.6193,-22.37456 49.61316,-21.40175 30.15699,9.72807 34.0483,-10.70088 38.9123,6.80965 22.3745,5.83684 9.7281,10.70088 h 29.1842 l 16.5377,26.26579 49.6132,-11.67369 -7.7825,-15.56491 -21.4017,-21.40175 4.0312,-32.68267 10.3182,-24.76362 24.0758,-10.31818 z"
     id="path1202"
     inkscape:connector-curvature="0" />
  <path
     style="fill:none;stroke:#000000;stroke-width:1px;stroke-linecap:butt;stroke-linejoin:miter;stroke-opacity:1"
     d="m 1455.3193,256.51448 14.592,-48.64035 -9.728,-29.18422 c 0,0 -122.5736,-32.58904 -131.3289,-32.58904 -8.7553,0 -60.314,7.29606 -60.314,7.29606 1.938,-43.13871 -70.5718,-67.368289 -110.3057,-28.87484 -21.0647,20.40704 -22.8537,44.2539 -20.5369,74.11037 6.9347,15.9325 12.3926,33.58787 26.7522,40.85789 l -1.9456,56.42281 43.7763,17.51052 47.6675,30.15702 144.9483,44.74912 h 17.5105 l 19.4562,-18.48333 z"
     id="path2185"
     inkscape:connector-curvature="0"
     sodipodi:nodetypes="cccscsccccccccc" />
  <path
     style="fill:none;stroke:#000000;stroke-width:1px;stroke-linecap:butt;stroke-linejoin:miter;stroke-opacity:1"
     d="m 323.05967,1262.8565 33.94924,16.5437 24.07575,-1.3758 41.96058,-18.5727 29.57878,-52.9666 -1.37576,-33.7061 -22.69999,-37.1454 -12.38181,-10.3182 -28.20302,-18.5727 h -32.33028 l -23.38787,15.1333 -17.19696,10.3182 -20.63635,30.2667 -5.50303,30.9545 -52.27876,43.3363 -14.44545,1.3758 -19.94848,-8.9424 -31.64241,1.3757 -15.8212,10.3182 -8.94242,15.8212 -20.63635,4.8152 -10.31818,15.8212 -3.43939,30.2666 8.25454,7.5667 12.38181,6.8788 11.69394,17.1969 v 30.9546 l 11.00605,12.3818 11.00606,4.1272 25.4515,-1.3757 24.76362,29.5788 11.69394,1.3757 8.25454,-5.503 1.37575,-9.6303 -16.50908,-35.7697 32.33029,-30.9545 8.94242,-25.4515 8.25454,-8.9424 13.75757,0.6878 35.0818,-30.9545 z"
     id="path50"
     inkscape:connector-curvature="0"
     sodipodi:nodetypes="ccccccccccccccccccccccccccccccccccccccccc" />
</svg>
