<?xml version="1.0" encoding="UTF-8" standalone="no"?>
<!-- Created with Inkscape (http://www.inkscape.org/) -->

<svg
   xmlns:dc="http://purl.org/dc/elements/1.1/"
   xmlns:cc="http://creativecommons.org/ns#"
   xmlns:rdf="http://www.w3.org/1999/02/22-rdf-syntax-ns#"
   xmlns:svg="http://www.w3.org/2000/svg"
   xmlns="http://www.w3.org/2000/svg"
   xmlns:xlink="http://www.w3.org/1999/xlink"
   xmlns:sodipodi="http://sodipodi.sourceforge.net/DTD/sodipodi-0.dtd"
   xmlns:inkscape="http://www.inkscape.org/namespaces/inkscape"
   version="1.1"
   id="svg1075"
   width="2592"
   height="2880"
   viewBox="0 0 2592 2880"
   sodipodi:docname="ulaula.svg"
   inkscape:version="0.92.4 (5da689c313, 2019-01-14)">
  <metadata
     id="metadata1081">
    <rdf:RDF>
      <cc:Work
         rdf:about="">
        <dc:format>image/svg+xml</dc:format>
        <dc:type
           rdf:resource="http://purl.org/dc/dcmitype/StillImage" />
        <dc:title />
      </cc:Work>
    </rdf:RDF>
  </metadata>
  <defs
     id="defs1079" />
  <sodipodi:namedview
     pagecolor="#ffffff"
     bordercolor="#666666"
     borderopacity="1"
     objecttolerance="10"
     gridtolerance="10"
     guidetolerance="10"
     inkscape:pageopacity="0"
     inkscape:pageshadow="2"
     inkscape:window-width="1920"
     inkscape:window-height="1019"
     id="namedview1077"
     showgrid="false"
     inkscape:object-paths="true"
     inkscape:zoom="1.8541911"
     inkscape:cx="1106.8179"
     inkscape:cy="2148.8317"
     inkscape:window-x="1920"
     inkscape:window-y="0"
     inkscape:window-maximized="1"
     inkscape:current-layer="svg1075"
     inkscape:snap-intersection-paths="false" />
  <image
     sodipodi:absref="/projects/poketools/app/assets/static/map/alola/ulaula.jpg"
     xlink:href="ulaula.jpg"
     y="0"
     x="0"
     id="image1083"
     preserveAspectRatio="none"
     height="2880"
     width="2592" />
  <path
     style="fill:none;stroke:#000000;stroke-width:1px;stroke-linecap:butt;stroke-linejoin:miter;stroke-opacity:1"
     d="m 1262.0058,1242.6283 43.1455,45.3028 -69.0328,75.5046 -105.7064,30.2019 -94.9201,-43.1455 -88.44831,-34.5164 -34.5164,10.7864 -81.97644,-62.561 2.15727,-118.6501 -40.98822,-60.4037 -6.47183,-49.6174 2.15728,-56.08911 69.0328,-32.35913 51.77459,-142.38014 79.81918,-43.1455 56.08918,-86.291 97.0773,2.15728 66.8756,60.4037 75.5046,133.75104 6.4718,297.70396 z"
     id="path1085"
     inkscape:connector-curvature="0" />
  <path
     style="fill:none;stroke:#000000;stroke-width:1px;stroke-linecap:butt;stroke-linejoin:miter;stroke-opacity:1"
     d="m 1351.5327,1269.5943 8.6291,70.1114 49.6174,42.0669 121.886,8.6291 53.9319,19.4154 60.4037,-9.7077 74.426,-44.2241 55.0105,16.1795 69.0328,4.3146 45.3027,-72.2687 -10.7863,-6.4719 -5.3932,-32.3591 -34.5164,-14.0223 -5.3932,-31.2805 -467.05,3.236 z"
     id="path1106"
     inkscape:connector-curvature="0" />
  <path
     style="fill:none;stroke:#000000;stroke-width:1px;stroke-linecap:butt;stroke-linejoin:miter;stroke-opacity:1"
     d="m 1889.7728,1304.1107 55.0105,9.7077 49.6174,-11.865 44.2241,33.4378 23.73,34.5163 44.2242,7.5505 34.5164,48.5387 39.9096,32.3591 28.0445,-2.1573 8.6291,9.7078 h 30.2019 l 44.2241,31.2805 28.0446,29.1232 12.9436,60.4037 12.9437,19.4155 6.4718,24.8086 9.7077,24.8087 v 24.8086 l 12.9437,23.7301 35.595,19.4154 1.0787,48.5387 -7.5505,6.4718 -3.2359,12.9437 7.5505,56.0891 -18.3369,15.101 -4.3145,25.8873 -12.9437,20.4941 -15.1009,72.2687 -60.4037,29.1232 -30.2018,-11.865 -57.1678,37.7523 -88.4483,31.2805 -32.3591,31.2805 -12.9437,30.2018 -7.5504,30.2019 -26.966,3.2359 -59.325,39.9096 -39.9096,11.865 -69.0328,-3.2359 -70.1115,32.3591 -52.8532,-168.2674 -50.696,-26.966 -15.1009,-163.9529 -5.3932,-217.8847 -8.6291,-133.7511 -28.0445,-93.8415 3.2359,-38.8309 74.426,-44.2241 55.0105,16.1795 69.0328,4.3146 z"
     id="path1108"
     inkscape:connector-curvature="0" />
  <path
     style="fill:none;stroke:#000000;stroke-width:1px;stroke-linecap:butt;stroke-linejoin:miter;stroke-opacity:1"
     d="m 1803.4818,2243.6039 -28.0445,14.0223 -36.6737,-10.7864 -34.5164,36.6737 -46.3814,8.6291 -44.2242,21.5727 -93.8414,47.4601 -90.6056,16.1795 -24.8086,-29.1232 -35.5951,-3.2359 -19.4154,-21.5727 -23.7301,4.3145 -37.7523,-35.595 -19.4154,3.2359 -17.2582,-47.4601 6.4718,-336.5348 -6.4718,-263.1876 23.73,-266.4234 h 134.8297 l 121.886,8.6291 53.9319,19.4154 60.4037,-9.7077 -3.2359,38.8309 28.0445,93.8415 14.0223,351.6358 15.1009,163.9529 50.696,26.966 z"
     id="path1110"
     inkscape:connector-curvature="0"
     sodipodi:nodetypes="cccccccccccccccccccccccccccc" />
  <path
     style="fill:none;stroke:#000000;stroke-width:1px;stroke-linecap:butt;stroke-linejoin:miter;stroke-opacity:1"
     d="m 1325.6454,2327.7376 -15.1009,34.5164 v 28.0446 l 29.1232,62.561 8.6291,23.73 -12.9436,45.3028 -33.4378,21.5727 -14.0223,79.8192 3.2359,80.8978 -45.3027,47.46 -88.4483,28.0446 -103.5492,23.73 -45.3028,-24.8086 -33.43773,-17.2582 -141.30151,-58.2464 -44.22414,6.4718 -24.80866,-18.3369 -31.28048,-8.6291 -44.22414,-49.6173 -16.17956,-31.2805 10.78637,-43.1455 66.87553,-133.751 44.22413,21.5727 43.1455,-4.3145 26.96594,-11.865 24.80866,-25.8873 58.24642,-3.2359 179.05387,-21.5728 z"
     id="path1112"
     inkscape:connector-curvature="0" />
  <path
     style="fill:none;stroke:#000000;stroke-width:1px;stroke-linecap:butt;stroke-linejoin:miter;stroke-opacity:1"
     d="m 750.73168,2424.815 -19.41548,-33.4378 15.10093,-59.325 38.83094,-34.5164 49.61733,20.4941 72.26871,-61.4824 18.33683,-67.9541 59.32507,-34.5164 -9.70774,-104.6278 -167.18881,-1.0787 -1.07864,-93.8414 -44.22413,-111.0997 29.12321,-83.0551 -8.6291,-66.8755 -23.73002,-48.5387 -52.85324,29.1232 -48.53869,26.966 -38.83095,-2.1573 -43.14549,-16.1796 -12.94365,-14.0223 -45.30278,-2.1572 -36.67367,-25.8873 -17.2582,-5.3932 -16.17956,18.3368 -25.8873,-4.3145 -34.5164,-19.4155 -17.2582,18.3368 -33.43776,-14.0223 -22.65139,-42.0668 2.15728,-33.4378 -29.12321,-28.0446 -51.7746,58.2465 -28.04458,55.0105 -16.17956,14.0223 -3.23591,24.8086 15.10092,43.1455 5.39319,38.831 10.78638,32.3591 -20.49412,23.73 -14.02228,10.7864 -1.07864,36.6737 15.10092,16.1795 17.2582,6.4718 -18.33683,40.9883 -19.41548,14.0223 -3.23591,16.1795 10.78637,18.3369 -7.55046,81.9764 -14.02229,15.1009 1.07864,16.1796 14.02229,38.8309 17.2582,16.1796 v 55.0105 l 14.02229,11.865 7.55046,46.3814 7.55046,19.4155 10.78637,6.4718 21.57275,44.2242 29.12322,29.1232 24.80866,1.0786 15.10092,59.3251 21.57275,34.5164 37.75231,21.5727 118.65012,38.831 55.01051,-12.9437 53.93188,5.3932 28.04457,-22.6514 19.41548,-7.5504 z"
     id="path1114"
     inkscape:connector-curvature="0" />
  <path
     style="fill:none;stroke:#000000;stroke-width:1px;stroke-linecap:butt;stroke-linejoin:miter;stroke-opacity:1"
     d="m 316.04078,1558.6691 22.65138,-38.8309 -17.2582,-33.4378 v -30.2019 l -15.10092,-28.0445 6.47182,-57.1678 -23.73002,-65.7969 23.73002,-75.5046 1.07864,-53.9319 28.04458,-34.5164 128.35785,30.2019 105.70648,-8.6291 55.01051,-66.8756 70.11143,-18.3368 90.60555,7.5505 40.98822,60.4037 -2.15727,118.6501 -4.31455,142.3801 -31.28049,179.0538 -35.59503,59.3251 -101.39193,56.0892 -38.83095,-2.1573 -43.14549,-16.1796 -12.94365,-14.0223 -45.30278,-2.1572 -36.67367,-25.8873 -17.2582,-5.3932 -16.17956,18.3368 -25.8873,-4.3145 -34.5164,-19.4155 -17.2582,18.3368 -33.43776,-14.0223 -22.65139,-42.0668 z"
     id="path1116"
     inkscape:connector-curvature="0" />
  <path
     style="fill:none;stroke:#000000;stroke-width:1px;stroke-linecap:butt;stroke-linejoin:miter;stroke-opacity:1"
     d="m 341.92808,1141.2364 19.59734,-39.8805 12.20339,-70.1695 18.30509,-47.2881 27.45763,-47.28813 -10.67797,-74.74577 215.08475,-160.16949 236.44067,-230.33898 68.64407,1.52542 76.27115,24.40678 48.8136,39.66102 9.1525,45.76271 -32.0339,22.88136 1.5255,15.25423 25.9322,13.72882 -14.523,40.68875 -56.08918,86.291 -79.81918,43.1455 -51.77459,142.38014 -69.0328,32.35913 -2.15728,56.08911 6.47183,49.6174 -90.60555,-7.5505 -70.11143,18.3368 -55.01051,66.8756 -105.70648,8.6291 z"
     id="path1118"
     inkscape:connector-curvature="0" />
  <path
     style="fill:none;stroke:#000000;stroke-width:1px;stroke-linecap:butt;stroke-linejoin:miter;stroke-opacity:1"
     d="m 1864.0678,1783.2203 79.322,-39.6609 c 88.5248,71.8956 147.137,80.3769 241.017,91.5253 l -21.3559,76.2712 c -116.972,-1.0246 -206.5305,-64.0959 -298.9831,-128.1356 z"
     id="path2772"
     inkscape:connector-curvature="0"
     sodipodi:nodetypes="ccccc" />
  <path
     style="fill:none;stroke:#000000;stroke-width:1px;stroke-linecap:butt;stroke-linejoin:miter;stroke-opacity:1"
     d="m 1373.8833,2088.12 82.8964,-4.3912 -13.7288,-112.8814 21.3559,-47.2881 186.1017,-13.7288 33.7825,-47.2559 -13.4816,-329.7928 -56.1484,-48.5445 -125.0847,-24.4068 -52.6271,0.7627 -80.8475,21.3559 -52.6271,16.7797 -52.2551,149.4672 6.0212,244.8618 113.7075,30.1908 12.9437,30.2018 z"
     id="path16"
     inkscape:connector-curvature="0"
     sodipodi:nodetypes="ccccccccccccccccc" />
  <path
     style="fill:none;stroke:#000000;stroke-width:1px;stroke-linecap:butt;stroke-linejoin:miter;stroke-opacity:1"
     d="m 1046.2783,686.5907 -2.1572,89.52691 31.8198,12.94365 31.8198,0.53932 c 0,0 23.73,2.15727 25.8873,1.61796 2.1573,-0.53932 14.5616,-12.40434 14.5616,-12.40434 l -5.9325,-7.01114 1.0786,-55.01051 -12.4043,-31.28049 z"
     id="path57"
     inkscape:connector-curvature="0" />
</svg>
