<svg version="1" xmlns="http://www.w3.org/2000/svg" width="933.333" height="933.333" viewBox="0 0 700.000000 700.000000"><path d="M.7 226.2c-1.3 3.8 6 13.4 13.6 17.6 6.1 3.4 10.3 4.9 40.7 13.6 12.4 3.6 25.2 7.4 28.5 8.5l6 1.9-4.5-.4c-17.7-1.6-49.8-2-51.3-.5-.7.7-.3 2 1.2 4.3 4.6 6.6 16.5 13.9 25.1 15.3 2.5.4 5.3.9 6.4 1.1 1 .2 3.9.6 6.4.9 2.6.3 5.4.7 6.2.9.8.3 3.6.7 6.2 1.1 8.8 1.1 9.9 2.1 2.8 2.8-3.6.3-7.4.8-8.5 1-6.2 1.5-7.4 2-7.8 3.8-.7 2.7 5.5 8.6 12.3 11.8 5.5 2.6 5.7 2.6 31.2 2.6 24.1 0 28.8.5 19.3 1.9-7.3 1-23.7 5.5-26.1 7.1-3 1.9-2.2 4 3.3 8.2 6.4 4.9 16.4 8.5 21.6 7.7.9-.1 6.9-.5 13.4-.8l11.8-.6-6.5 2.3c-3.6 1.3-6.5 2.7-6.4 3.2.1 1.2 9.2 6.4 15.2 8.8 5.2 2.1 8.7 2.1 14.3.2l4.4-1.5-2.5 2c-2.5 1.9-2.5 1.9-.5 3.8 3.3 3.3 11.4 7.2 16 7.8 3.6.6 13-1.1 25-4.2 1.5-.4 1.3 0-.9 1.8-4.3 3.6-3 5.1 6 6.8l7.9 1.6 10.5-4.2c5.8-2.3 10.7-4 10.9-3.7.3.2-1 1.6-2.9 3.1-4.1 3.5-3.6 5.5 1.7 7.7s9.1 2.1 14.7-.3c5.9-2.7 5.9-2.7 4.4-.2-1.7 2.7-.3 3.6 7.6 4.5l6.1.7-6.5 2.5c-15.8 6.2-26.7 10.6-29.5 11.8-1.6.7-12.2 5.2-23.5 10-28.5 12.1-54.2 23.1-62.8 27.1-4 1.9-7.5 3.4-7.7 3.4-.4 0-16.2 7.2-43.5 19.8-6.2 2.8-11 6.2-11 7.6 0 2.2 6.8 1 22-3.9 7.4-2.4 18-5.8 23.5-7.5 5.5-1.8 13.2-4.2 17-5.5 8.2-2.7 72.3-22.9 87-27.4 17-5.2 28.2-7.9 29.4-7.2.8.5-1.7 3.1-6.6 7.2-4.3 3.5-8 6.6-8.3 6.9-.3.3-2.5 2.1-5 4.1-2.5 2-5.5 4.5-6.6 5.5-1.2 1.1-3.9 3.2-6 4.9-14.1 11.2-45.4 37.7-45.4 38.5 0 2.1 5.6-.1 18-7 3.6-2 10.3-5.7 15-8.2 9.8-5.2 29.8-16.4 48.6-27 13-7.4 18.8-9.7 19.9-7.8 1.3 2.2 6.7 1 9.5-2 2.7-2.9 3.1-3 10.9-2.9 7.9.1 8 .2 6.9 2.3-.6 1.1-1 2.3-.9 2.6.2.3.7 1.3 1.3 2.3.7 1.4 1.8 1.8 4.2 1.5 1.9-.2 3.8.2 4.5.9 1.7 1.9 5.1 1.6 8.8-.7 1.8-1 4.1-1.7 5.2-1.5 2.8.5 7.9-3.9 8.3-7.2.2-1.4 1-2.8 1.8-2.9.8-.2 2.9-.6 4.5-.9 12.2-2.4 30.4-11 40.9-19.4 2.4-1.9 4.3-2.8 5-2.2 2.3 1.8 15.5 3.4 17.7 2.1.7-.5.9-1.7.6-3-.5-1.8 0-1.6 2.7 1.4 2.6 2.8 4.1 3.6 6.8 3.6 1.9 0 4.3-.6 5.3-1.4 1.7-1.2 2.2-1.2 4.4.5 1.6 1.3 4 1.9 7.2 1.9 5.8 0 6.7-1.6 4.4-8s-1.8-6.7 1.8-1.4c4.7 6.7 7.5 8.6 13.8 8.9 3 .1 6-.2 6.7-.7.8-.7 1.7-.7 2.7.2 1.6 1.3 14.3.5 15.9-1 .5-.5 0-2.6-1.3-5l-2.1-4.1 3.7 3c6 4.8 11.6 6.4 20 5.7 12.3-1.1 12.4-1.5 2.4-11.3-5.5-5.5-6-6.2-2.9-4.4 12.6 7.4 28.2 13.9 34.3 14.3 4.9.3 15.4-1.1 17.8-2.3 2.6-1.5 2.1-2.5-2.5-4.8-2.4-1.2-3.6-2.1-2.8-2.1.8 0 2.7.6 4.1 1.4 4.5 2.3 12.8 3.9 17.2 3.2 6.7-1 16.7-4.6 16.7-6 0-1.8-3.7-4.9-10.3-8.6-3.2-1.8-5.7-3.4-5.5-3.6.2-.1 4.7 1 10.1 2.7 21 6.2 34.5 6.9 44.2 2.4 8.8-4.2 7.2-6.9-6.7-11.4-3.7-1.3-7.1-2.7-7.4-3.3-.4-.6-.2-.8.3-.5 1.4.8 12.8 1.9 20.8 2 10.6.1 18.3-2.3 20.5-6.3.9-1.6.6-2.2-1.7-3.4l-2.8-1.5 2.5-.2c11.6-.8 19.2-3.4 25.1-8.6 6.5-5.8 3.2-7.8-16.1-9.8-3-.3-7.7-.8-10.5-1.1-2.7-.2-6.3-.7-7.8-1-1.6-.3-3.8-.7-5-.9-4.2-.5-16.2-2.6-21.2-3.5-11.1-2.2-27-5.2-29.4-5.7-1.4-.2-4.5-.8-6.9-1.4-2.3-.5-5.8-1.2-7.6-1.5-1.9-.2-11.2-2.5-20.7-5-23.3-6-28.8-7.1-32.9-6.6-1.9.2-11.4 3.6-21 7.6-20.4 8.6-29.5 11.7-43.4 15.3-12.1 3-10.9 2.8-17.1 3.8-2.7.5-5.2 1-5.5 1-.3.1-3.2.5-6.5.9s-7 .9-8.2 1.1c-2 .3-2.3-.1-2.3-3.1 0-3.9.2-4.2 7.8-10.2 4.1-3.2 6.3-4.2 9-4.2 3.9 0 11-1.4 11.9-2.4.3-.3-.9-2.4-2.6-4.8-2.8-3.8-3-4.3-1.4-4.9 1-.4 7.6-3 14.7-5.7 12.6-4.9 12.8-5 10.5-6.5-3.5-2.3-12.9-6.3-16.7-7.2-1.8-.3-3.7-1.6-4.4-2.8-2.9-5.6-13.3-10.3-28.5-12.8-13.4-2.2-21.8-1.3-30.3 3-5.1 2.6-14.8 5.4-23 6.7-1.9.3-10.9.7-19.9 1-9.1.2-16.7.6-16.9.8-.4.5 10.5 8 12.8 8.9 2.6.9-3.3.8-9.1-.3-6.1-1.1-7.1-1.4-15.1-3.3-5.1-1.3-5.8-1.3-5.8 0 0 2.2 12 13.7 16.9 16.2 4.8 2.5 4.8 3 0 3.6-3.7.5-8.4-1.8-32.9-16.3-19.7-11.7-37.6-23.7-55.4-37.2-8.2-6.2-17-12.5-19.5-14-7.8-4.7-15.7-5.6-59.6-6.5-31-.6-57.1-1.7-73.5-3-1.9-.1-7.8-.6-13-.9-5.2-.4-11.7-.9-14.5-1.1-2.7-.2-9.5-.7-15-1.1-5.5-.3-11.3-.7-13-.9-1.6-.1-7.3-.6-12.5-.9-5.2-.4-12-.9-15-1.2-16.6-1.4-18.8-1.5-19.3-.2z"/></svg>